<?xml version="1.0" encoding="UTF-8" standalone="no"?>
<svg
   xmlns:dc="http://purl.org/dc/elements/1.1/"
   xmlns:cc="http://creativecommons.org/ns#"
   xmlns:rdf="http://www.w3.org/1999/02/22-rdf-syntax-ns#"
   xmlns:svg="http://www.w3.org/2000/svg"
   xmlns="http://www.w3.org/2000/svg"
   xmlns:sodipodi="http://sodipodi.sourceforge.net/DTD/sodipodi-0.dtd"
   xmlns:inkscape="http://www.inkscape.org/namespaces/inkscape"
   width="24"
   height="24"
   version="1.1"
   viewBox="0 0 24 24"
   id="svg24"
   sodipodi:docname="logo2.svg"
   inkscape:export-filename="/home/gt/code/gitlab/bloben/bloben-notes/public/logo.png"
   inkscape:export-xdpi="576"
   inkscape:export-ydpi="576"
   inkscape:version="0.92.4 (5da689c313, 2019-01-14)">
  <metadata
     id="metadata30">
    <rdf:RDF>
      <cc:Work
         rdf:about="">
        <dc:format>image/svg+xml</dc:format>
        <dc:type
           rdf:resource="http://purl.org/dc/dcmitype/StillImage" />
        <dc:title></dc:title>
      </cc:Work>
    </rdf:RDF>
  </metadata>
  <defs
     id="defs28" />
  <sodipodi:namedview
     pagecolor="#ffffff"
     bordercolor="#666666"
     borderopacity="1"
     objecttolerance="10"
     gridtolerance="10"
     guidetolerance="10"
     inkscape:pageopacity="0"
     inkscape:pageshadow="2"
     inkscape:window-width="1673"
     inkscape:window-height="865"
     id="namedview26"
     showgrid="false"
     inkscape:zoom="27.812868"
     inkscape:cx="6.2612351"
     inkscape:cy="15.007425"
     inkscape:window-x="0"
     inkscape:window-y="27"
     inkscape:window-maximized="0"
     inkscape:current-layer="layer1" />
  <path
     d="M0 0h24v24H0V0z"
     fill="none"
     id="path2" />
  <g
     transform="translate(1.71,82.71)"
     id="g14">
    <path
       d="m0 0h24v24h-24z"
       fill="none"
       id="path10" />
    <path
       d="m19 3h-4.18c-0.42-1.16-1.52-2-2.82-2s-2.4 0.84-2.82 2h-4.18c-1.1 0-2 0.9-2 2v14c0 1.1 0.9 2 2 2h14c1.1 0 2-0.9 2-2v-14c0-1.1-0.9-2-2-2zm-7 0c0.55 0 1 0.45 1 1s-0.45 1-1 1-1-0.45-1-1 0.45-1 1-1zm-2.71 13.29-2.59-2.59c-0.39-0.39-0.39-1.02 0-1.41s1.02-0.39 1.41 0l1.89 1.88 5.88-5.88c0.39-0.39 1.02-0.39 1.41 0s0.39 1.02 0 1.41l-6.59 6.59c-0.38 0.39-1.02 0.39-1.41 0z"
       id="path12" />
  </g>
  <g
     inkscape:groupmode="layer"
     id="layer1"
     inkscape:label="bg">
    <g
       id="g865"
       data-name="Layer 2"
       transform="matrix(0.49630759,-0.84795863,0.85962999,0.48956911,-3.3443502,16.475735)"
       style="fill:#f5f5f5;fill-opacity:1;stroke:none;stroke-width:0.86446768;stroke-miterlimit:4;stroke-dasharray:5.18680593, 0.86446766;stroke-dashoffset:0;stroke-opacity:1">
      <g
         id="g863"
         data-name="pin"
         style="fill:#f5f5f5;fill-opacity:1;stroke:none;stroke-width:0.86446768;stroke-miterlimit:4;stroke-dasharray:5.18680593, 0.86446766;stroke-dashoffset:0;stroke-opacity:1">
        <rect
           id="rect857"
           height="24"
           width="24"
           x="0"
           y="0"
           style="opacity:0;fill:#f5f5f5;fill-opacity:1;stroke:none;stroke-width:0.86446768;stroke-miterlimit:4;stroke-dasharray:5.18680593, 0.86446766;stroke-dashoffset:0;stroke-opacity:1" />
        <path
           id="path859"
           d="M 12,2 A 8,8 0 0 0 4,9.92 c 0,5.48 7.05,11.58 7.35,11.84 a 1,1 0 0 0 1.3,0 C 13,21.5 20,15.4 20,9.92 A 8,8 0 0 0 12,2 Z m 0,17.65 c -1.67,-1.59 -6,-6 -6,-9.73 a 6,6 0 0 1 12,0 c 0,3.7 -4.33,8.14 -6,9.73 z"
           inkscape:connector-curvature="0"
           style="fill:#f5f5f5;fill-opacity:1;stroke:none;stroke-width:0.86446768;stroke-miterlimit:4;stroke-dasharray:5.18680593, 0.86446766;stroke-dashoffset:0;stroke-opacity:1" />
      </g>
    </g>
  </g>
  <g
     inkscape:groupmode="layer"
     id="layer2"
     inkscape:label="icon">
    <g
       data-name="Layer 2"
       id="g22"
       transform="matrix(0.95550847,0,0,0.95550847,-21.610169,2.2881356)"
       style="fill:#eeeeee;fill-opacity:0">
      <g
         data-name="checkmark-circle"
         id="g20"
         style="fill:#eeeeee;fill-opacity:0">
        <rect
           width="24"
           height="24"
           id="rect16"
           x="0"
           y="0"
           style="opacity:0;fill:#eeeeee;fill-opacity:0" />
        <path
           d="M 20.15342,10.237694 A 1.052306,1.052306 0 0 0 19.101114,11.29 8.4184477,8.4184477 0 0 1 10.682666,19.708448 8.4184477,8.4184477 0 0 1 4.716092,5.354994 8.3447863,8.3447863 0 0 1 10.682666,2.8715519 9.2497694,9.2497694 0 0 1 12.682048,3.1030592 1.052306,1.052306 0 1 0 13.176631,1.0615856 11.091305,11.091305 0 0 0 10.682666,0.76693998 10.52306,10.52306 0 0 0 3.316525,18.75085 10.449398,10.449398 0 0 0 10.682666,21.81306 10.52306,10.52306 0 0 0 21.205726,11.29 1.052306,1.052306 0 0 0 20.15342,10.237694 Z"
           id="path18"
           inkscape:connector-curvature="0"
           style="fill:#eeeeee;fill-opacity:0;stroke-width:1.05230594" />
      </g>
    </g>
    <path
       id="path846-6-7-2"
       d="M 14.447141,13.585885 H 9.8581566 a 0.76483051,0.76483051 0 0 0 0,1.529661 h 4.5889844 a 0.76483051,0.76483051 0 0 0 0,-1.529661 z"
       inkscape:connector-curvature="0"
       style="fill:#eeeeee;fill-opacity:1;stroke-width:0.76483053" />
    <path
       id="path846-6-7-2-9"
       d="M 14.294492,11.23517 H 9.705508 a 0.76483051,0.76483051 0 0 0 0,1.52966 h 4.588984 a 0.76483051,0.76483051 0 0 0 0,-1.52966 z"
       inkscape:connector-curvature="0"
       style="fill:#eeeeee;fill-opacity:1;stroke-width:0.76483053" />
    <path
       id="path846-6-7-2-7"
       d="M 14.375232,8.9971552 H 9.7862472 a 0.76483051,0.76483051 0 0 0 0,1.5296608 h 4.5889848 a 0.76483051,0.76483051 0 0 0 0,-1.5296608 z"
       inkscape:connector-curvature="0"
       style="fill:#eeeeee;fill-opacity:1;stroke-width:0.76483053" />
  </g>
</svg>
